<svg width="24" height="25" viewBox="0 0 24 25" fill="none" xmlns="http://www.w3.org/2000/svg">
<path d="M12 7.36667C15.4455 7.36667 18.5182 9.35467 20.0182 12.5C18.5182 15.6453 15.4455 17.6333 12 17.6333C8.55455 17.6333 5.48182 15.6453 3.98182 12.5C5.48182 9.35467 8.55455 7.36667 12 7.36667ZM12 5.5C7.45455 5.5 3.57273 8.40267 2 12.5C3.57273 16.5973 7.45455 19.5 12 19.5C16.5455 19.5 20.4273 16.5973 22 12.5C20.4273 8.40267 16.5455 5.5 12 5.5ZM12 10.1667C13.2545 10.1667 14.2727 11.212 14.2727 12.5C14.2727 13.788 13.2545 14.8333 12 14.8333C10.7455 14.8333 9.72727 13.788 9.72727 12.5C9.72727 11.212 10.7455 10.1667 12 10.1667ZM12 8.3C9.74545 8.3 7.90909 10.1853 7.90909 12.5C7.90909 14.8147 9.74545 16.7 12 16.7C14.2545 16.7 16.0909 14.8147 16.0909 12.5C16.0909 10.1853 14.2545 8.3 12 8.3Z" fill="#D1CECE"/>
</svg>
