<svg width="25" height="24" viewBox="0 0 25 24" fill="none" xmlns="http://www.w3.org/2000/svg">
<g clip-path="url(#clip0_3214_18421)">
<path fill-rule="evenodd" clip-rule="evenodd" d="M24.02 12.2749C24.02 11.4239 23.9436 10.6058 23.8018 9.82031H12.5V14.4621H18.9582C18.68 15.9621 17.8345 17.233 16.5636 18.0839V21.0949H20.4418C22.7109 19.0058 24.02 15.9294 24.02 12.2749Z" fill="#4285F4"/>
<path fill-rule="evenodd" clip-rule="evenodd" d="M12.5 24.0013C15.74 24.0013 18.4564 22.9267 20.4418 21.094L16.5636 18.0831C15.4891 18.8031 14.1145 19.2285 12.5 19.2285C9.37455 19.2285 6.72909 17.1176 5.78546 14.2812H1.77637V17.3903C3.75091 21.3122 7.80909 24.0013 12.5 24.0013Z" fill="#34A853"/>
<path fill-rule="evenodd" clip-rule="evenodd" d="M5.78545 14.2785C5.54545 13.5585 5.40909 12.7894 5.40909 11.9985C5.40909 11.2076 5.54545 10.4385 5.78545 9.71847V6.60938H1.77636C0.963636 8.22938 0.5 10.0621 0.5 11.9985C0.5 13.9348 0.963636 15.7676 1.77636 17.3876L5.78545 14.2785Z" fill="#FBBC05"/>
<path fill-rule="evenodd" clip-rule="evenodd" d="M12.5 4.77273C14.2618 4.77273 15.8436 5.37818 17.0873 6.56727L20.5291 3.12545C18.4509 1.18909 15.7345 0 12.5 0C7.80909 0 3.75091 2.68909 1.77637 6.61091L5.78546 9.72C6.72909 6.88364 9.37455 4.77273 12.5 4.77273Z" fill="#EA4335"/>
</g>
<defs>
<clipPath id="clip0_3214_18421">
<rect x="0.5" width="24" height="24" rx="6" fill="white"/>
</clipPath>
</defs>
</svg>
