<svg width="24" height="24" viewBox="0 0 24 24" fill="none" xmlns="http://www.w3.org/2000/svg">
<path d="M4.45565 23C3.78034 23 3.20224 22.7846 2.72135 22.3538C2.24045 21.9229 2 21.405 2 20.8V7.6C2 6.995 2.24045 6.47708 2.72135 6.04625C3.20224 5.61542 3.78034 5.4 4.45565 5.4H6.91129C6.91129 4.19 7.39219 3.15417 8.35398 2.2925C9.31578 1.43083 10.472 1 11.8226 1C13.1732 1 14.3294 1.43083 15.2912 2.2925C16.253 3.15417 16.7339 4.19 16.7339 5.4H19.1895C19.8648 5.4 20.4429 5.61542 20.9238 6.04625C21.4047 6.47708 21.6452 6.995 21.6452 7.6V20.8C21.6452 21.405 21.4047 21.9229 20.9238 22.3538C20.4429 22.7846 19.8648 23 19.1895 23H4.45565ZM4.45565 20.8H19.1895V7.6H16.7339V9.8C16.7339 10.1117 16.6162 10.3729 16.3809 10.5837C16.1455 10.7946 15.8539 10.9 15.506 10.9C15.1582 10.9 14.8666 10.7946 14.6312 10.5837C14.3959 10.3729 14.2782 10.1117 14.2782 9.8V7.6H9.36693V9.8C9.36693 10.1117 9.24927 10.3729 9.01394 10.5837C8.7786 10.7946 8.487 10.9 8.13911 10.9C7.79123 10.9 7.49962 10.7946 7.26429 10.5837C7.02896 10.3729 6.91129 10.1117 6.91129 9.8V7.6H4.45565V20.8ZM9.36693 5.4H14.2782C14.2782 4.795 14.0378 4.27708 13.5569 3.84625C13.076 3.41542 12.4979 3.2 11.8226 3.2C11.1473 3.2 10.5692 3.41542 10.0883 3.84625C9.60738 4.27708 9.36693 4.795 9.36693 5.4Z" fill="#1E1E1E"/>
</svg>
