<svg width="24" height="24" viewBox="0 0 24 24" fill="none" xmlns="http://www.w3.org/2000/svg">
<path d="M12 3.6125C13.595 3.6125 14.8875 4.905 14.8875 6.5C14.8875 8.095 13.595 9.3875 12 9.3875C10.405 9.3875 9.1125 8.095 9.1125 6.5C9.1125 4.905 10.405 3.6125 12 3.6125ZM12 15.9875C16.0838 15.9875 20.3875 17.995 20.3875 18.875V20.3875H3.6125V18.875C3.6125 17.995 7.91625 15.9875 12 15.9875ZM12 1C8.96125 1 6.5 3.46125 6.5 6.5C6.5 9.53875 8.96125 12 12 12C15.0388 12 17.5 9.53875 17.5 6.5C17.5 3.46125 15.0388 1 12 1ZM12 13.375C8.32875 13.375 1 15.2175 1 18.875V23H23V18.875C23 15.2175 15.6713 13.375 12 13.375Z" fill="#1E1E1E"/>
</svg>
