<svg width="212" height="36" viewBox="0 0 212 36" fill="none" xmlns="http://www.w3.org/2000/svg">
<path d="M0 35.3273V0.612898H20.7051C22.6023 0.612898 24.2934 0.968741 25.8195 1.68043C27.3868 2.39211 28.5829 3.38056 29.449 4.68532C30.3152 5.95054 30.7689 7.45299 30.7689 9.19266C30.7689 10.5765 30.5214 11.8022 29.9852 12.8697C29.449 13.9372 28.7479 14.8466 27.8405 15.5583C26.9743 16.27 25.9432 16.784 24.8296 17.1398V17.3375C26.1494 17.6143 27.3455 18.1283 28.3767 18.84C29.449 19.5912 30.2739 20.5401 30.8514 21.7262C31.47 22.8728 31.8 24.2567 31.8 25.8382C31.8 27.9337 31.3051 29.6734 30.2739 31.0968C29.284 32.5201 27.9642 33.5877 26.3144 34.2994C24.6646 34.9715 22.8086 35.3273 20.7463 35.3273H0ZM7.87782 29.1594H19.2202C20.5401 29.1594 21.5712 28.8036 22.3961 28.0919C23.221 27.3802 23.6747 26.2731 23.6747 24.8102C23.6747 23.9404 23.5097 23.1891 23.1385 22.517C22.7673 21.8844 22.2724 21.3704 21.5712 21.0541C20.87 20.6983 19.9626 20.5006 18.8903 20.5006H7.87782V29.1594ZM7.87782 14.6094H18.3128C19.2615 14.6094 20.0451 14.4512 20.7051 14.0954C21.365 13.7395 21.8599 13.2651 22.1899 12.672C22.5611 12.0789 22.7261 11.3673 22.7261 10.616C22.7261 9.31128 22.3549 8.32283 21.5712 7.61114C20.8288 6.93899 19.8389 6.58315 18.6016 6.58315H7.87782V14.6094Z" fill="#84B4A4"/>
<path d="M74.7337 35.3274V0.612965H81.9516L96.5112 19.354C96.7174 19.5913 97.0061 19.9471 97.2948 20.382C97.6248 20.7774 97.9135 21.1728 98.2022 21.6077C98.4909 22.0031 98.6972 22.3194 98.7796 22.5566H99.0271C99.0271 21.9635 99.0271 21.41 99.0271 20.896C99.0271 20.3029 99.0271 19.8285 99.0271 19.3936V0.612965H106.451V35.3274H99.2333L84.3439 16.1514C83.9726 15.677 83.6427 15.163 83.2302 14.5699C82.859 13.9768 82.5703 13.5419 82.4053 13.2652H82.1579C82.1579 13.7792 82.1579 14.2931 82.1579 14.7676C82.1579 15.2421 82.1579 15.677 82.1579 16.1514V35.3274H74.7337Z" fill="#84B4A4"/>
<path d="M120.971 35.3274V6.939H109.34V0.6129H140.521V6.939H128.849V35.3274H120.971Z" fill="#84B4A4"/>
<path d="M175.54 35.3274L188.573 17.0608L176.818 0.612965H186.428L193.894 11.6046H194.141L201.565 0.612965H210.598L198.761 17.0608L211.877 35.3274H202.267L193.564 22.4775H193.316L184.655 35.3274H175.54Z" fill="#84B4A4"/>
<path fill-rule="evenodd" clip-rule="evenodd" d="M39.6926 4.36603C38.5963 5.37022 37.6735 6.55075 36.9129 7.90762C35.4281 10.5567 34.6857 13.9174 34.6857 17.9898C34.6857 22.0227 35.4281 25.3439 36.8717 27.993C38.3565 30.642 40.5013 32.6585 43.2647 33.9632C46.0694 35.268 49.369 35.9401 53.2048 35.9401C56.9306 35.9401 60.1344 35.3681 62.8161 34.1561L58.5873 28.7082C58.3174 28.8374 58.0357 28.9548 57.7417 29.0605C56.4631 29.535 54.9371 29.7722 53.2048 29.7722C51.5137 29.7722 50.0289 29.535 48.709 29.0605C47.4304 28.586 46.3168 27.8744 45.4507 26.9254C44.5433 25.9765 43.8834 24.8299 43.4297 23.4856C43.0172 22.1018 42.811 20.5203 42.811 18.7806V17.1991C42.811 15.4199 43.0172 13.8383 43.4297 12.4545C43.677 11.7002 43.9978 11.0165 44.3787 10.4032L39.6926 4.36603ZM63.182 22.9556C63.533 21.7025 63.7223 20.302 63.7223 18.7806V17.1991C63.7223 15.4199 63.4748 13.8383 63.0211 12.4545C62.5674 11.0707 61.9075 9.92406 61.0001 9.01469C60.1339 8.06577 59.0203 7.35409 57.7417 6.87963C56.4219 6.40517 54.9371 6.16794 53.2048 6.16794C52.1819 6.16794 51.2345 6.25474 50.3534 6.42833L46.0879 0.9331C48.2241 0.315267 50.619 0 53.246 0C57.1643 0 60.4639 0.672148 63.2273 1.9769C65.9908 3.24212 68.1355 5.21903 69.6203 7.90762C71.1052 10.5567 71.8476 13.8779 71.8476 17.9898C71.8476 22.0227 71.1052 25.3439 69.6203 27.993C69.27 28.618 68.8852 29.2079 68.4649 29.7614L63.182 22.9556Z" fill="#84B4A4"/>
<path fill-rule="evenodd" clip-rule="evenodd" d="M143.409 6.88442V35.3274H165.487L160.668 29.1199H151.328V20.6588H154.101L143.409 6.88442ZM169.728 29.1199L172.652 32.886V29.1199H169.728ZM163.161 20.6588L158.404 14.5304H169.93V20.6588H163.161ZM152.389 6.78091H172.322V0.612965H147.601L152.389 6.78091Z" fill="#84B4A4"/>
</svg>
