<svg width="220" height="40" viewBox="0 0 220 40" fill="none" xmlns="http://www.w3.org/2000/svg">
<path d="M0 39.2526V0.681H21.4864C23.4553 0.681 25.2101 1.07638 26.7938 1.86714C28.4202 2.6579 29.6615 3.75618 30.5603 5.20591C31.4591 6.61171 31.93 8.2811 31.93 10.2141C31.93 11.7517 31.6732 13.1135 31.1167 14.2997C30.5603 15.4858 29.8327 16.4962 28.891 17.287C27.9922 18.0778 26.9222 18.6489 25.7665 19.0442V19.2639C27.1362 19.5714 28.3774 20.1425 29.4475 20.9333C30.5603 21.768 31.4163 22.8223 32.0156 24.1403C32.6576 25.4143 33 26.9519 33 28.7091C33 31.0375 32.4864 32.9704 31.4163 34.552C30.3891 36.1335 29.0195 37.3196 27.3074 38.1104C25.5953 38.8572 23.6693 39.2526 21.5292 39.2526H0ZM8.1751 32.3993H19.9455C21.3152 32.3993 22.3852 32.004 23.2412 31.2132C24.0973 30.4224 24.5681 29.1924 24.5681 27.5669C24.5681 26.6004 24.3969 25.7657 24.0117 25.0189C23.6265 24.316 23.1128 23.7449 22.3852 23.3934C21.6576 22.9981 20.716 22.7784 19.6031 22.7784H8.1751V32.3993ZM8.1751 16.2326H19.0039C19.9883 16.2326 20.8016 16.0569 21.4864 15.6615C22.1712 15.2662 22.6848 14.739 23.0272 14.08C23.4124 13.4211 23.5837 12.6303 23.5837 11.7956C23.5837 10.3459 23.1984 9.24759 22.3852 8.45682C21.6148 7.70999 20.5875 7.31461 19.3035 7.31461H8.1751V16.2326Z" fill="#FAFAFA"/>
<path d="M77.5557 39.2527V0.681076H85.0459L100.155 21.5045C100.369 21.7681 100.669 22.1634 100.968 22.6467C101.311 23.086 101.61 23.5253 101.91 24.0086C102.209 24.4479 102.423 24.7993 102.509 25.0629H102.766C102.766 24.4039 102.766 23.7889 102.766 23.2178C102.766 22.5588 102.766 22.0316 102.766 21.5484V0.681076H110.47V39.2527H102.98L87.5284 17.946C87.1432 17.4189 86.8008 16.8478 86.3728 16.1888C85.9876 15.5298 85.688 15.0466 85.5168 14.7391H85.2599C85.2599 15.3102 85.2599 15.8813 85.2599 16.4085C85.2599 16.9356 85.2599 17.4189 85.2599 17.946V39.2527H77.5557Z" fill="#FAFAFA"/>
<path d="M125.537 39.2526V7.70999H113.467V0.681H145.825V7.70999H133.712V39.2526H125.537Z" fill="#FAFAFA"/>
<path d="M182.162 39.2527L195.687 18.9565L183.489 0.681076H193.462L201.209 12.894H201.466L209.17 0.681076H218.543L206.259 18.9565L219.87 39.2527H209.898L200.866 24.975H200.61L191.621 39.2527H182.162Z" fill="#FAFAFA"/>
<path fill-rule="evenodd" clip-rule="evenodd" d="M41.1911 4.85097C40.0534 5.96677 39.0957 7.27853 38.3064 8.78624C36.7655 11.7296 35.9951 15.4638 35.9951 19.9887C35.9951 24.4697 36.7655 28.1599 38.2636 31.1033C39.8045 34.0467 42.0301 36.2872 44.8978 37.7369C47.8083 39.1866 51.2325 39.9335 55.213 39.9335C59.0796 39.9335 62.4043 39.2979 65.1872 37.9511L60.7989 31.8978C60.5187 32.0415 60.2263 32.172 59.9212 32.2894C58.5943 32.8166 57.0107 33.0802 55.213 33.0802C53.4581 33.0802 51.9173 32.8166 50.5476 32.2894C49.2208 31.7623 48.0652 30.9715 47.1663 29.9172C46.2247 28.8628 45.5399 27.5888 45.069 26.0951C44.641 24.5576 44.427 22.8003 44.427 20.8673V19.1101C44.427 17.1332 44.641 15.3759 45.069 13.8383C45.3257 13.0002 45.6586 12.2404 46.054 11.5589L41.1911 4.85097ZM65.5669 25.5059C65.931 24.1137 66.1274 22.5577 66.1274 20.8673V19.1101C66.1274 17.1332 65.8706 15.3759 65.3998 13.8383C64.929 12.3007 64.2441 11.0267 63.3025 10.0163C62.4037 8.96197 61.248 8.17121 59.9212 7.64403C58.5515 7.11686 57.0107 6.85327 55.213 6.85327C54.1516 6.85327 53.1686 6.94969 52.2543 7.14253L47.8278 1.0367C50.0446 0.350271 52.5298 0 55.2558 0C59.322 0 62.7461 0.746831 65.6138 2.19656C68.4815 3.60236 70.7072 5.79892 72.248 8.78624C73.7889 11.7296 74.5593 15.4199 74.5593 19.9887C74.5593 24.4697 73.7889 28.1599 72.248 31.1033C71.8845 31.7977 71.4852 32.453 71.0491 33.0681L65.5669 25.5059Z" fill="#FAFAFA"/>
<path fill-rule="evenodd" clip-rule="evenodd" d="M148.822 7.65069V39.2527H171.732L166.732 32.3555H157.04V22.9542H159.917L148.822 7.65069ZM176.134 32.3555L179.169 36.5414V32.3555H176.134ZM169.318 22.9542L164.382 16.1449H176.344V22.9542H169.318ZM158.14 7.53435H178.826V0.681076H153.171L158.14 7.53435Z" fill="#FAFAFA"/>
</svg>
