<svg width="19" height="18" viewBox="0 0 19 18" fill="none" xmlns="http://www.w3.org/2000/svg">
<path d="M12.5 9H14.5C14.5 6.24 12.26 4 9.5 4V6C11.16 6 12.5 7.34 12.5 9ZM16.5 9H18.5C18.5 4.03 14.47 0 9.5 0V2C13.37 2 16.5 5.13 16.5 9ZM17.5 12.5C16.25 12.5 15.05 12.3 13.93 11.93C13.83 11.9 13.72 11.88 13.62 11.88C13.36 11.88 13.11 11.98 12.91 12.17L10.71 14.37C7.88 12.93 5.56 10.62 4.12 7.78L6.32 5.57C6.6 5.31 6.68 4.92 6.57 4.57C6.2 3.45 6 2.25 6 1C6 0.45 5.55 0 5 0H1.5C0.95 0 0.5 0.45 0.5 1C0.5 10.39 8.11 18 17.5 18C18.05 18 18.5 17.55 18.5 17V13.5C18.5 12.95 18.05 12.5 17.5 12.5ZM2.53 2H4.03C4.1 2.88 4.25 3.75 4.48 4.58L3.28 5.79C2.88 4.58 2.62 3.32 2.53 2ZM16.5 15.97C15.18 15.88 13.9 15.62 12.7 15.21L13.9 14.01C14.75 14.25 15.62 14.4 16.5 14.46V15.97Z" fill="#1E1E1E"/>
</svg>
