<svg width="24" height="25" viewBox="0 0 24 25" fill="none" xmlns="http://www.w3.org/2000/svg">
<path d="M15 12.5H17C17 9.74 14.76 7.5 12 7.5V9.5C13.66 9.5 15 10.84 15 12.5ZM19 12.5H21C21 7.53 16.97 3.5 12 3.5V5.5C15.87 5.5 19 8.63 19 12.5ZM20 16C18.75 16 17.55 15.8 16.43 15.43C16.33 15.4 16.22 15.38 16.12 15.38C15.86 15.38 15.61 15.48 15.41 15.67L13.21 17.87C10.38 16.43 8.06 14.12 6.62 11.28L8.82 9.07C9.1 8.81 9.18 8.42 9.07 8.07C8.7 6.95 8.5 5.75 8.5 4.5C8.5 3.95 8.05 3.5 7.5 3.5H4C3.45 3.5 3 3.95 3 4.5C3 13.89 10.61 21.5 20 21.5C20.55 21.5 21 21.05 21 20.5V17C21 16.45 20.55 16 20 16ZM5.03 5.5H6.53C6.6 6.38 6.75 7.25 6.98 8.08L5.78 9.29C5.38 8.08 5.12 6.82 5.03 5.5ZM19 19.47C17.68 19.38 16.4 19.12 15.2 18.71L16.4 17.51C17.25 17.75 18.12 17.9 19 17.96V19.47Z" fill="#1E1E1E"/>
</svg>
