<svg width="25" height="24" viewBox="0 0 25 24" fill="none" xmlns="http://www.w3.org/2000/svg">
<path fill-rule="evenodd" clip-rule="evenodd" d="M10.0406 7.46311C9.85645 7.02036 9.66284 7.01018 9.48811 7.00509C9.34644 7 9.18116 7 9.01588 7C8.85059 7 8.58614 7.06616 8.35947 7.33079C8.1328 7.59543 7.5 8.23666 7.5 9.54458C7.5 10.8474 8.38308 12.1095 8.50586 12.2876C8.62864 12.4658 10.2106 15.2292 12.7088 16.2928C14.7866 17.1783 15.2116 17.0002 15.6602 16.9544C16.1089 16.9086 17.1147 16.3132 17.3225 15.6923C17.5256 15.0714 17.5256 14.5421 17.4642 14.4302C17.4028 14.3182 17.2375 14.252 16.9919 14.1197C16.7464 13.9874 15.5374 13.3462 15.3108 13.2546C15.0841 13.1681 14.9188 13.1223 14.7583 13.3869C14.593 13.6515 14.1207 14.247 13.9791 14.4251C13.8374 14.6032 13.691 14.6236 13.4454 14.4912C13.1999 14.3589 12.4065 14.079 11.4668 13.1731C10.7348 12.4708 10.239 11.6006 10.0973 11.336C9.95562 11.0713 10.0831 10.9288 10.2059 10.7965C10.3145 10.6795 10.4515 10.4861 10.5743 10.3334C10.697 10.1807 10.7395 10.0688 10.8198 9.89064C10.9001 9.71252 10.8623 9.55984 10.8009 9.42753C10.7395 9.3003 10.2579 7.9873 10.0406 7.46311Z" fill="#1E1E1E"/>
<path d="M2.5 22L3.91356 16.8669C3.03964 15.3603 2.58118 13.654 2.58596 11.9097C2.58596 6.44392 7.05587 2 12.543 2C15.2077 2 17.7101 3.03137 19.5869 4.90399C21.4685 6.77662 22.5048 9.26711 22.5 11.9144C22.5 17.3802 18.0301 21.8241 12.5382 21.8241H12.5334C10.8668 21.8241 9.22874 21.4059 7.7722 20.6169L2.5 22ZM8.02531 18.8251L8.32617 19.0057C9.59646 19.7567 11.053 20.1511 12.5382 20.1559H12.543C17.1036 20.1559 20.819 16.4629 20.819 11.9192C20.819 9.71863 19.9594 7.65114 18.3978 6.09221C16.8362 4.53327 14.754 3.67776 12.543 3.67776C7.98233 3.673 4.26695 7.36597 4.26695 11.9097C4.26695 13.4639 4.70153 14.98 5.53247 16.2918L5.72827 16.6055L4.89255 19.6426L8.02531 18.8251Z" fill="#1E1E1E"/>
</svg>
